<svg width="1440" height="462" viewBox="0 0 1440 462" fill="none" xmlns="http://www.w3.org/2000/svg">
<path d="M942.064 0H1440V462H859L942.064 0Z" fill="#6BC6BB"/>
<path d="M0 0L947 0L859 462H0V0Z" fill="#FFA800"/>
<path d="M563.638 328.859C563.995 327.704 565.51 327.704 565.867 328.859L567.964 335.639C568.425 337.129 569.202 338.483 570.234 339.594C571.266 340.704 572.524 341.541 573.908 342.037L580.2 344.294C581.272 344.679 581.272 346.31 580.2 346.695L573.905 348.953C572.521 349.45 571.263 350.287 570.232 351.398C569.201 352.509 568.424 353.864 567.964 355.354L565.867 362.13C565.79 362.383 565.641 362.603 565.441 362.76C565.241 362.916 565 363 564.753 363C564.505 363 564.265 362.916 564.064 362.76C563.864 362.603 563.715 362.383 563.638 362.13L561.542 355.351C561.08 353.861 560.304 352.507 559.272 351.396C558.241 350.286 556.984 349.449 555.601 348.953L549.305 346.695C549.07 346.612 548.866 346.451 548.721 346.236C548.576 346.02 548.498 345.761 548.498 345.495C548.498 345.229 548.576 344.969 548.721 344.754C548.866 344.538 549.07 344.377 549.305 344.294L555.601 342.037C556.984 341.54 558.241 340.704 559.272 339.593C560.304 338.483 561.08 337.129 561.542 335.639L563.638 328.859ZM551.083 311.013C551.13 310.861 551.219 310.729 551.34 310.636C551.46 310.542 551.604 310.492 551.753 310.492C551.901 310.492 552.045 310.542 552.165 310.636C552.286 310.729 552.375 310.861 552.422 311.013L553.68 315.08C554.242 316.893 555.562 318.314 557.245 318.919L561.022 320.274C561.162 320.324 561.285 320.421 561.372 320.55C561.458 320.679 561.505 320.835 561.505 320.995C561.505 321.154 561.458 321.31 561.372 321.439C561.285 321.569 561.162 321.666 561.022 321.716L557.245 323.07C556.414 323.367 555.659 323.869 555.04 324.535C554.421 325.202 553.956 326.015 553.68 326.91L552.422 330.977C552.375 331.128 552.286 331.26 552.165 331.354C552.045 331.447 551.901 331.498 551.753 331.498C551.604 331.498 551.46 331.447 551.34 331.354C551.219 331.26 551.13 331.128 551.083 330.977L549.825 326.91C549.55 326.015 549.084 325.202 548.465 324.535C547.846 323.869 547.091 323.367 546.26 323.07L542.484 321.716C542.343 321.666 542.22 321.569 542.134 321.439C542.047 321.31 542 321.154 542 320.995C542 320.835 542.047 320.679 542.134 320.55C542.22 320.421 542.343 320.324 542.484 320.274L546.26 318.919C547.091 318.622 547.846 318.121 548.465 317.454C549.084 316.787 549.55 315.974 549.825 315.08L551.083 311.013ZM574.057 307.341C574.089 307.242 574.15 307.155 574.229 307.094C574.309 307.033 574.405 307 574.503 307C574.601 307 574.696 307.033 574.776 307.094C574.856 307.155 574.916 307.242 574.948 307.341L575.786 310.05C576.16 311.261 577.041 312.21 578.165 312.612L580.681 313.515C580.773 313.55 580.854 313.615 580.91 313.7C580.967 313.786 580.998 313.889 580.998 313.995C580.998 314.1 580.967 314.203 580.91 314.289C580.854 314.375 580.773 314.44 580.681 314.474L578.165 315.377C577.612 315.577 577.109 315.912 576.696 316.357C576.283 316.801 575.972 317.343 575.786 317.939L574.948 320.648C574.916 320.748 574.856 320.834 574.776 320.895C574.696 320.957 574.601 320.99 574.503 320.99C574.405 320.99 574.309 320.957 574.229 320.895C574.15 320.834 574.089 320.748 574.057 320.648L573.219 317.939C573.034 317.343 572.722 316.801 572.309 316.357C571.897 315.912 571.393 315.577 570.84 315.377L568.328 314.474C568.235 314.44 568.155 314.375 568.098 314.289C568.041 314.203 568.011 314.1 568.011 313.995C568.011 313.889 568.041 313.786 568.098 313.7C568.155 313.615 568.235 313.55 568.328 313.515L570.843 312.612C571.968 312.21 572.848 311.261 573.222 310.05L574.057 307.341Z" fill="white"/>
<g clip-path="url(#clip0_1_472)">
<path d="M1186.1 38.5696C1186.39 37.6415 1187.61 37.6415 1187.9 38.5696L1189.59 44.0174C1189.97 45.215 1190.59 46.3031 1191.43 47.1955C1192.26 48.0879 1193.28 48.76 1194.39 49.1587L1199.48 50.9728C1200.34 51.2821 1200.34 52.5928 1199.48 52.9021L1194.39 54.7162C1193.27 55.1155 1192.26 55.7882 1191.43 56.6811C1190.59 57.574 1189.97 58.6625 1189.59 59.8603L1187.9 65.3053C1187.84 65.5085 1187.72 65.6855 1187.56 65.8109C1187.39 65.9364 1187.2 66.004 1187 66.004C1186.8 66.004 1186.61 65.9364 1186.44 65.8109C1186.28 65.6855 1186.16 65.5085 1186.1 65.3053L1184.41 59.8574C1184.03 58.6602 1183.41 57.5723 1182.57 56.6799C1181.74 55.7875 1180.73 55.1152 1179.61 54.7162L1174.52 52.9021C1174.33 52.8354 1174.17 52.7062 1174.05 52.533C1173.93 52.3598 1173.87 52.1513 1173.87 51.9374C1173.87 51.7235 1173.93 51.5151 1174.05 51.3419C1174.17 51.1686 1174.33 51.0395 1174.52 50.9728L1179.61 49.1587C1180.73 48.7597 1181.74 48.0874 1182.57 47.195C1183.41 46.3026 1184.03 45.2147 1184.41 44.0174L1186.1 38.5696ZM1175.96 24.2287C1176 24.1069 1176.07 24.0009 1176.17 23.9258C1176.26 23.8507 1176.38 23.8102 1176.5 23.8102C1176.62 23.8102 1176.74 23.8507 1176.83 23.9258C1176.93 24.0009 1177 24.1069 1177.04 24.2287L1178.06 27.4968C1178.51 28.9537 1179.58 30.0956 1180.94 30.5821L1183.99 31.6706C1184.1 31.7109 1184.2 31.7886 1184.27 31.8926C1184.34 31.9966 1184.38 32.1216 1184.38 32.2499C1184.38 32.3782 1184.34 32.5033 1184.27 32.6073C1184.2 32.7113 1184.1 32.789 1183.99 32.8293L1180.94 33.9178C1180.27 34.1564 1179.66 34.5595 1179.16 35.0952C1178.66 35.6308 1178.28 36.2841 1178.06 37.0031L1177.04 40.2712C1177 40.393 1176.93 40.499 1176.83 40.5741C1176.74 40.6492 1176.62 40.6897 1176.5 40.6897C1176.38 40.6897 1176.26 40.6492 1176.17 40.5741C1176.07 40.499 1176 40.393 1175.96 40.2712L1174.94 37.0031C1174.72 36.2841 1174.34 35.6308 1173.84 35.0952C1173.34 34.5595 1172.73 34.1564 1172.06 33.9178L1169.01 32.8293C1168.9 32.789 1168.8 32.7113 1168.73 32.6073C1168.66 32.5033 1168.62 32.3782 1168.62 32.2499C1168.62 32.1216 1168.66 31.9966 1168.73 31.8926C1168.8 31.7886 1168.9 31.7109 1169.01 31.6706L1172.06 30.5821C1172.73 30.3435 1173.34 29.9403 1173.84 29.4047C1174.34 28.8691 1174.72 28.2158 1174.94 27.4968L1175.96 24.2287ZM1194.52 21.2784C1194.54 21.1983 1194.59 21.1289 1194.65 21.0797C1194.72 21.0306 1194.8 21.0042 1194.87 21.0042C1194.95 21.0042 1195.03 21.0306 1195.1 21.0797C1195.16 21.1289 1195.21 21.1983 1195.23 21.2784L1195.91 23.4553C1196.21 24.4284 1196.93 25.1906 1197.83 25.514L1199.87 26.2396C1199.94 26.2674 1200 26.3194 1200.05 26.3885C1200.1 26.4575 1200.12 26.5402 1200.12 26.6249C1200.12 26.7097 1200.1 26.7924 1200.05 26.8614C1200 26.9305 1199.94 26.9825 1199.87 27.0103L1197.83 27.7359C1197.39 27.8962 1196.98 28.1656 1196.65 28.5229C1196.31 28.8801 1196.06 29.3155 1195.91 29.7946L1195.23 31.9715C1195.21 32.0516 1195.16 32.121 1195.1 32.1702C1195.03 32.2193 1194.95 32.2457 1194.87 32.2457C1194.8 32.2457 1194.72 32.2193 1194.65 32.1702C1194.59 32.121 1194.54 32.0516 1194.52 31.9715L1193.84 29.7946C1193.69 29.3155 1193.44 28.8801 1193.1 28.5229C1192.77 28.1656 1192.36 27.8962 1191.92 27.7359L1189.89 27.0103C1189.81 26.9825 1189.75 26.9305 1189.7 26.8614C1189.66 26.7924 1189.63 26.7097 1189.63 26.6249C1189.63 26.5402 1189.66 26.4575 1189.7 26.3885C1189.75 26.3194 1189.81 26.2674 1189.89 26.2396L1191.92 25.514C1192.83 25.1906 1193.54 24.4284 1193.84 23.4553L1194.52 21.2784Z" fill="white"/>
</g>
<path d="M753.87 271.519C753.866 271.861 753.755 272.193 753.553 272.469C753.352 272.745 753.069 272.952 752.745 273.061L749.847 274.017C748.934 274.331 748.109 274.86 747.442 275.558C746.747 276.235 746.22 277.063 745.9 277.979L744.898 280.862C744.784 281.18 744.58 281.458 744.312 281.663C744.028 281.863 743.689 281.971 743.341 281.972C742.997 281.978 742.66 281.87 742.385 281.663C742.104 281.461 741.893 281.175 741.784 280.846L740.812 277.948C740.512 277.037 740.003 276.208 739.326 275.529C738.648 274.849 737.822 274.336 736.912 274.032L734.014 273.076C733.688 272.961 733.403 272.752 733.197 272.475C733.042 272.265 732.941 272.021 732.9 271.764C732.859 271.507 732.88 271.244 732.961 270.996C733.043 270.749 733.182 270.525 733.368 270.342C733.554 270.159 733.78 270.024 734.029 269.947L736.912 268.991C737.832 268.691 738.669 268.179 739.355 267.496C740.04 266.813 740.556 265.979 740.859 265.06L741.815 262.192C741.908 261.872 742.103 261.591 742.37 261.39C742.635 261.17 742.966 261.046 743.31 261.036C743.661 261.013 744.009 261.111 744.297 261.313C744.592 261.501 744.815 261.784 744.929 262.115L745.9 265.044C746.2 265.964 746.712 266.801 747.395 267.487C748.078 268.172 748.912 268.688 749.831 268.991L752.714 269.993C753.039 270.094 753.321 270.3 753.516 270.579C753.726 270.849 753.85 271.177 753.87 271.519ZM738.654 260.803C738.65 261.119 738.548 261.426 738.364 261.683C738.179 261.939 737.92 262.133 737.621 262.237L735.555 262.915C734.973 263.122 734.446 263.46 734.014 263.902C733.573 264.335 733.236 264.862 733.027 265.443L732.302 267.509C732.203 267.797 732.021 268.049 731.778 268.234C731.516 268.418 731.205 268.52 730.884 268.527C730.566 268.521 730.258 268.418 730.001 268.23C729.744 268.042 729.552 267.78 729.45 267.478L728.772 265.413C728.565 264.83 728.228 264.303 727.785 263.871C727.351 263.432 726.824 263.095 726.244 262.884L724.162 262.191C723.861 262.093 723.6 261.898 723.422 261.636C723.23 261.383 723.127 261.074 723.13 260.757C723.132 260.435 723.234 260.123 723.422 259.863C723.615 259.615 723.879 259.432 724.178 259.338L726.244 258.645C726.825 258.436 727.352 258.098 727.785 257.658C728.233 257.231 728.57 256.702 728.772 256.116L729.466 254.081C729.558 253.79 729.735 253.532 729.975 253.341C730.221 253.147 730.524 253.039 730.838 253.033C731.156 253.006 731.473 253.094 731.732 253.28C731.997 253.455 732.202 253.708 732.318 254.004L733.012 256.116C733.22 256.699 733.557 257.226 733.998 257.658C734.432 258.098 734.959 258.436 735.54 258.645L737.621 259.369C737.911 259.478 738.162 259.671 738.341 259.924C738.52 260.177 738.618 260.478 738.623 260.788L738.654 260.803Z" fill="white"/>
<defs>
<clipPath id="clip0_1_472">
<rect width="42" height="45" fill="white" transform="translate(1166 21)"/>
</clipPath>
</defs>
</svg>
