<svg width="50" height="50" viewBox="0 0 50 50" fill="none" xmlns="http://www.w3.org/2000/svg">
<path d="M32.7339 34.9434L15.0563 17.2657C14.4523 16.6617 14.4523 15.66 15.0563 15.056C15.6603 14.452 16.662 14.452 17.266 15.056L34.9437 32.7337C35.5476 33.3377 35.5476 34.3394 34.9437 34.9434C34.3397 35.5474 33.3379 35.5474 32.7339 34.9434Z" fill="#111111"/>
<path d="M15.0563 34.9434C14.4524 34.3394 14.4524 33.3377 15.0563 32.7337L32.734 15.056C33.338 14.452 34.3397 14.452 34.9437 15.056C35.5477 15.66 35.5477 16.6617 34.9437 17.2657L17.2661 34.9434C16.6621 35.5474 15.6603 35.5474 15.0563 34.9434Z" fill="#111111"/>
</svg>
