<svg width="534" height="416" viewBox="0 0 534 416" fill="none" xmlns="http://www.w3.org/2000/svg">
<path d="M114.127 174.618L419.681 172.912C434.585 172.829 446.748 184.857 446.831 199.761L446.874 207.456C447.374 296.878 375.177 369.858 285.782 370.358L250.223 370.556C160.828 371.056 87.8202 298.859 87.3209 209.464L87.2777 201.742C87.1945 186.838 99.2228 174.675 114.127 174.591L114.127 174.618Z" fill="#F7C31E" stroke="white" stroke-width="11" stroke-miterlimit="10"/>
<path d="M189.064 341.248L352.493 340.335L352.727 382.293C352.81 397.196 340.782 409.36 325.878 409.443L216.449 410.054C201.545 410.137 189.382 398.109 189.299 383.205L189.064 341.248Z" fill="#88A550" stroke="white" stroke-width="11" stroke-miterlimit="10"/>
<path d="M25.9797 189.638L87.2147 189.296L87.4381 229.283L26.203 229.625C15.1602 229.686 6.17326 220.773 6.11174 209.757C6.05006 198.714 14.964 189.727 25.9798 189.665L25.9797 189.638Z" fill="#88A550" stroke="white" stroke-width="11" stroke-miterlimit="10"/>
<path d="M508.366 226.147L447.131 226.489L446.908 186.502L508.143 186.16C519.185 186.099 528.172 195.013 528.234 206.029C528.296 217.071 519.382 226.058 508.366 226.12L508.366 226.147Z" fill="#88A550" stroke="white" stroke-width="11" stroke-miterlimit="10"/>
<path d="M391.158 117.021C402.565 117.021 411.813 107.773 411.813 96.3659C411.813 84.9585 402.565 75.7109 391.158 75.7109C379.75 75.7109 370.503 84.9585 370.503 96.3659C370.503 107.773 379.75 117.021 391.158 117.021Z" fill="#FF633A" stroke="white" stroke-width="11" stroke-miterlimit="10"/>
<path d="M342.963 355.998C318.474 367.662 293.823 374.493 269.01 376.518C244.17 378.543 220.545 375.789 198.054 368.337C175.59 360.885 155.286 349.221 137.142 333.399C119.025 317.55 104.256 297.705 92.862 273.81C81.468 249.942 75.339 225.966 74.448 201.909C73.557 177.852 77.364 154.713 85.869 132.465C94.374 110.244 107.226 90.1024 124.398 72.0934C141.597 54.0844 162.414 39.2074 186.903 27.5434C214.389 14.4214 241.605 7.2934 268.524 6.1594C280.458 5.6464 292.095 6.3754 303.435 8.2924C325.845 12.0994 338.778 35.9404 330.246 57.0004C323.766 72.9574 306.891 81.8674 289.962 78.6274C282.78 77.2504 275.598 76.5754 268.416 76.6024C251.946 76.6834 235.827 80.4634 220.113 87.9424C205.29 95.0164 192.897 103.98 182.88 114.888C172.863 125.796 165.492 137.919 160.74 151.311C155.988 164.703 154.071 178.797 155.016 193.566C155.934 208.335 160.011 223.266 167.22 238.386C174.429 253.506 183.474 266.061 194.382 276.078C205.29 286.095 217.413 293.466 230.805 298.218C244.197 302.97 258.264 304.887 273.06 303.942C287.829 303.024 302.625 299.028 317.421 291.981C333.135 284.502 346.176 274.296 356.517 261.363C360.999 255.747 364.968 249.726 368.397 243.273C376.497 228.018 394.101 220.431 410.625 225.453C432.333 232.068 442.674 257.043 431.631 276.861C425.988 286.986 419.211 296.571 411.3 305.643C393.534 325.974 370.773 342.768 342.963 356.025V355.998Z" fill="#FF633A" stroke="white" stroke-width="11" stroke-miterlimit="10"/>
</svg>
