<svg width="125" height="124" viewBox="0 0 125 124" fill="none" xmlns="http://www.w3.org/2000/svg">
<g filter="url(#filter0_d_282_65)">
<path d="M62.5 6C31.7219 6 6.5 31.2219 6.5 62C6.5 77.356 12.9531 91.2685 22.9935 101.375L62.5 114.719L102.006 101.375C112.047 91.2685 118.5 77.356 118.5 62C118.5 31.2219 93.2777 6 62.5 6ZM62.5 84.9688C49.8344 84.9688 39.5312 74.6656 39.5312 62C39.5312 49.3344 49.8344 39.0312 62.5 39.0312C75.1656 39.0312 85.4688 49.3344 85.4688 62C85.4688 74.6656 75.1656 84.9688 62.5 84.9688Z" fill="white"/>
<path d="M62.5 6C31.7219 6 6.5 31.2219 6.5 62C6.5 77.356 12.9531 91.2685 22.9935 101.375L62.5 114.719L102.006 101.375C112.047 91.2685 118.5 77.356 118.5 62C118.5 31.2219 93.2777 6 62.5 6ZM62.5 84.9688C49.8344 84.9688 39.5312 74.6656 39.5312 62C39.5312 49.3344 49.8344 39.0312 62.5 39.0312C75.1656 39.0312 85.4688 49.3344 85.4688 62C85.4688 74.6656 75.1656 84.9688 62.5 84.9688Z" fill="#F46A45"/>
<path d="M62.5 101.375C52.6562 101.375 52.6562 94.8124 42.8125 94.8124C32.9687 94.8124 32.9687 101.441 22.9935 101.375C33.1 111.481 47.0781 118 62.5 118C77.9219 118 91.8998 111.481 102.006 101.375C92.0312 101.441 92.0969 94.8124 82.1875 94.8124C72.3437 94.8124 72.3437 101.375 62.5 101.375ZM32.0073 72.8051C30.7257 71.5234 28.6491 71.5234 27.3674 72.8051C26.0858 74.0867 26.0858 76.1633 27.3674 77.445L33.9299 84.0075C35.2118 85.2891 37.2882 85.2891 38.5698 84.0075C39.8515 82.7258 39.8515 80.6492 38.5698 79.3676L32.0073 72.8051ZM62.5 32.4687H75.625C77.4386 32.4687 78.9062 31.0011 78.9062 29.1874C78.9062 27.3738 77.4386 25.9062 75.625 25.9062H62.5C60.6863 25.9062 59.2187 27.3738 59.2187 29.1874C59.2187 31.0011 60.6863 32.4687 62.5 32.4687ZM91.0698 84.0073L97.6323 77.4448C98.914 76.1631 98.914 74.0865 97.6323 72.8049C96.3507 71.5232 94.2741 71.5232 92.9924 72.8049L86.4299 79.3674C85.1483 80.649 85.1483 82.7256 86.4299 84.0073C87.7118 85.2891 89.7882 85.2891 91.0698 84.0073ZM92.9926 51.1948C94.2745 52.4764 96.3509 52.4764 97.6326 51.1948C98.9142 49.9131 98.9142 47.8365 97.6326 46.5549L91.0701 39.9924C89.7884 38.7107 87.7118 38.7107 86.4301 39.9924C85.1485 41.274 85.1485 43.3506 86.4301 44.6323L92.9926 51.1948ZM32.0073 51.1948L38.5698 44.6323C39.8515 43.3506 39.8515 41.274 38.5698 39.9924C37.2882 38.7107 35.2116 38.7107 33.9299 39.9924L27.3674 46.5549C26.0858 47.8365 26.0858 49.9131 27.3674 51.1948C28.6493 52.4767 30.7257 52.4767 32.0073 51.1948ZM49.3752 32.3125C51.1873 32.3125 52.6565 30.8434 52.6565 29.0312C52.6565 27.2191 51.1873 25.75 49.3752 25.75C47.5631 25.75 46.094 27.2191 46.094 29.0312C46.094 30.8434 47.5629 32.3125 49.3752 32.3125ZM26.4065 61.8437C26.4065 60.0316 24.9373 58.5625 23.1252 58.5625C21.3131 58.5625 19.844 60.0316 19.844 61.8437C19.844 63.6559 21.3131 65.125 23.1252 65.125C24.9373 65.125 26.4065 63.6559 26.4065 61.8437ZM101.875 58.5625C100.063 58.5625 98.594 60.0316 98.594 61.8437C98.594 63.6559 100.063 65.125 101.875 65.125C103.687 65.125 105.156 63.6559 105.156 61.8437C105.156 60.0316 103.687 58.5625 101.875 58.5625Z" fill="white"/>
</g>
<defs>
<filter id="filter0_d_282_65" x="0.5" y="0" width="124" height="124" filterUnits="userSpaceOnUse" color-interpolation-filters="sRGB">
<feFlood flood-opacity="0" result="BackgroundImageFix"/>
<feColorMatrix in="SourceAlpha" type="matrix" values="0 0 0 0 0 0 0 0 0 0 0 0 0 0 0 0 0 0 127 0" result="hardAlpha"/>
<feOffset/>
<feGaussianBlur stdDeviation="3"/>
<feComposite in2="hardAlpha" operator="out"/>
<feColorMatrix type="matrix" values="0 0 0 0 0 0 0 0 0 0 0 0 0 0 0 0 0 0 0.25 0"/>
<feBlend mode="normal" in2="BackgroundImageFix" result="effect1_dropShadow_282_65"/>
<feBlend mode="normal" in="SourceGraphic" in2="effect1_dropShadow_282_65" result="shape"/>
</filter>
</defs>
</svg>
