<svg width="85" height="124" viewBox="0 0 85 124" fill="none" xmlns="http://www.w3.org/2000/svg">
<g filter="url(#filter0_d_282_110)">
<path d="M75.3124 6H9.68739C7.87374 6 6.40614 7.46759 6.40614 9.28125V114.717C6.40614 116.044 7.20721 117.242 8.43133 117.749C9.64889 118.258 11.0653 117.979 12.0075 117.037C14.3505 114.694 18.1495 114.694 20.4925 117.037C21.7742 118.319 23.8508 118.319 25.1325 117.037C27.4755 114.694 31.2745 114.694 33.6175 117.037C34.8992 118.319 36.9758 118.319 38.2575 117.037C40.6005 114.694 44.3995 114.694 46.7425 117.037C48.0242 118.319 50.1008 118.319 51.3825 117.037C53.7255 114.694 57.5245 114.694 59.8675 117.037C61.1492 118.319 63.2258 118.319 64.5075 117.037C66.8505 114.694 70.6495 114.694 72.9925 117.037C73.9472 117.992 75.3756 118.25 76.5687 117.749C77.7928 117.243 78.5939 116.044 78.5939 114.718V9.28125C78.5936 7.46759 77.1261 6 75.3124 6Z" fill="#F46A45"/>
<path d="M42.5002 41.3029C40.6929 41.3029 39.219 39.832 39.219 38.0216C39.219 36.2112 40.6929 34.7404 42.5002 34.7404C44.3075 34.7404 45.7815 36.2112 45.7815 38.0216C45.7815 39.8353 47.2491 41.3029 49.0627 41.3029C50.8764 41.3029 52.344 39.8353 52.344 38.0216C52.344 33.7494 49.593 30.1414 45.7815 28.7823V24.8966C45.7815 23.0829 44.3139 21.6154 42.5002 21.6154C40.6866 21.6154 39.219 23.0829 39.219 24.8966V28.7823C35.4075 30.1414 32.6565 33.7494 32.6565 38.0216C32.6565 43.4497 37.0722 47.8654 42.5002 47.8654C44.3075 47.8654 45.7815 49.3362 45.7815 51.1466C45.7815 52.957 44.3075 54.4279 42.5002 54.4279C40.6929 54.4279 39.219 52.957 39.219 51.1466C39.219 49.333 37.7514 47.8654 35.9377 47.8654C34.1241 47.8654 32.6565 49.333 32.6565 51.1466C32.6565 55.4188 35.4075 59.0269 39.219 60.3859V64.2716C39.219 66.0853 40.6866 67.5529 42.5002 67.5529C44.3139 67.5529 45.7815 66.0853 45.7815 64.2716V60.3859C49.593 59.0271 52.344 55.4188 52.344 51.1466C52.344 45.7185 47.9285 41.3029 42.5002 41.3029ZM42.5002 74.1154H22.8127C20.9991 74.1154 19.5315 75.583 19.5315 77.3966C19.5315 79.2103 20.9991 80.6779 22.8127 80.6779H42.5002C44.3139 80.6779 45.7815 79.2103 45.7815 77.3966C45.7815 75.583 44.3139 74.1154 42.5002 74.1154ZM42.5002 87.2404H22.8127C20.9991 87.2404 19.5315 88.7079 19.5315 90.5216C19.5315 92.3353 20.9991 93.8029 22.8127 93.8029H42.5002C44.3139 93.8029 45.7815 92.3353 45.7815 90.5216C45.7815 88.7079 44.3139 87.2404 42.5002 87.2404ZM55.6252 80.6779H62.1877C64.0014 80.6779 65.469 79.2103 65.469 77.3966C65.469 75.583 64.0014 74.1154 62.1877 74.1154H55.6252C53.8116 74.1154 52.344 75.583 52.344 77.3966C52.344 79.2103 53.8116 80.6779 55.6252 80.6779ZM62.1877 87.2404H55.6252C53.8116 87.2404 52.344 88.7079 52.344 90.5216C52.344 92.3353 53.8116 93.8029 55.6252 93.8029H62.1877C64.0014 93.8029 65.469 92.3353 65.469 90.5216C65.469 88.7079 64.0014 87.2404 62.1877 87.2404Z" fill="white"/>
</g>
<defs>
<filter id="filter0_d_282_110" x="0.406143" y="0" width="84.1877" height="124" filterUnits="userSpaceOnUse" color-interpolation-filters="sRGB">
<feFlood flood-opacity="0" result="BackgroundImageFix"/>
<feColorMatrix in="SourceAlpha" type="matrix" values="0 0 0 0 0 0 0 0 0 0 0 0 0 0 0 0 0 0 127 0" result="hardAlpha"/>
<feOffset/>
<feGaussianBlur stdDeviation="3"/>
<feComposite in2="hardAlpha" operator="out"/>
<feColorMatrix type="matrix" values="0 0 0 0 0 0 0 0 0 0 0 0 0 0 0 0 0 0 0.25 0"/>
<feBlend mode="normal" in2="BackgroundImageFix" result="effect1_dropShadow_282_110"/>
<feBlend mode="normal" in="SourceGraphic" in2="effect1_dropShadow_282_110" result="shape"/>
</filter>
</defs>
</svg>
