<svg width="18" height="18" viewBox="0 0 18 18" fill="none" xmlns="http://www.w3.org/2000/svg">
<path d="M3.07275 2.97437C4.70557 1.34155 6.65348 0.525146 8.9165 0.525146C11.1795 0.525146 13.1131 1.34155 14.7173 2.97437C16.3501 4.57853 17.1665 6.51213 17.1665 8.77515C17.1665 11.0382 16.3501 12.9861 14.7173 14.6189C13.1131 16.2231 11.1795 17.0251 8.9165 17.0251C6.65348 17.0251 4.70557 16.2231 3.07275 14.6189C1.46859 12.9861 0.666504 11.0382 0.666504 8.77515C0.666504 6.51213 1.46859 4.57853 3.07275 2.97437ZM13.772 3.91968C12.4256 2.57332 10.8071 1.90015 8.9165 1.90015C7.02588 1.90015 5.40739 2.57332 4.06104 3.91968C2.71468 5.26603 2.0415 6.88452 2.0415 8.77515C2.0415 10.6658 2.71468 12.2843 4.06104 13.6306C5.40739 14.977 7.02588 15.6501 8.9165 15.6501C10.8071 15.6501 12.4256 14.977 13.772 13.6306C15.1183 12.2843 15.7915 10.6658 15.7915 8.77515C15.7915 6.88452 15.1183 5.26603 13.772 3.91968ZM8.40088 2.80249C8.54411 2.65926 8.71598 2.58765 8.9165 2.58765C9.11702 2.58765 9.27458 2.65926 9.38916 2.80249C9.53239 2.91707 9.604 3.07463 9.604 3.27515C9.604 3.47567 9.53239 3.64754 9.38916 3.79077C9.27458 3.90535 9.11702 3.96265 8.9165 3.96265C8.71598 3.96265 8.54411 3.90535 8.40088 3.79077C8.2863 3.64754 8.229 3.47567 8.229 3.27515C8.229 3.07463 8.2863 2.91707 8.40088 2.80249ZM4.53369 4.4353C4.67692 4.29207 4.83447 4.22046 5.00635 4.22046C5.20687 4.22046 5.37874 4.29207 5.52197 4.4353C5.6652 4.54989 5.73682 4.70744 5.73682 4.90796C5.73682 5.07983 5.6652 5.23739 5.52197 5.38062C5.37874 5.52384 5.20687 5.59546 5.00635 5.59546C4.83447 5.59546 4.67692 5.52384 4.53369 5.38062C4.41911 5.23739 4.36182 5.07983 4.36182 4.90796C4.36182 4.70744 4.41911 4.54989 4.53369 4.4353ZM12.311 4.39233L13.2993 5.38062L10.2485 8.4314C10.2772 8.54598 10.2915 8.66056 10.2915 8.77515C10.2915 9.14754 10.1483 9.47697 9.86182 9.76343C9.604 10.0212 9.2889 10.1501 8.9165 10.1501C8.54411 10.1501 8.21468 10.0212 7.92822 9.76343C7.67041 9.47697 7.5415 9.14754 7.5415 8.77515C7.5415 8.40275 7.67041 8.08765 7.92822 7.82983C8.21468 7.54338 8.54411 7.40015 8.9165 7.40015C9.03109 7.40015 9.14567 7.41447 9.26025 7.44312L12.311 4.39233ZM2.90088 8.30249C3.04411 8.15926 3.21598 8.08765 3.4165 8.08765C3.61702 8.08765 3.77458 8.15926 3.88916 8.30249C4.03239 8.41707 4.104 8.57463 4.104 8.77515C4.104 8.97567 4.03239 9.14754 3.88916 9.29077C3.77458 9.40535 3.61702 9.46265 3.4165 9.46265C3.21598 9.46265 3.04411 9.40535 2.90088 9.29077C2.7863 9.14754 2.729 8.97567 2.729 8.77515C2.729 8.57463 2.7863 8.41707 2.90088 8.30249ZM13.9009 8.30249C14.0441 8.15926 14.216 8.08765 14.4165 8.08765C14.617 8.08765 14.7746 8.15926 14.8892 8.30249C15.0324 8.41707 15.104 8.57463 15.104 8.77515C15.104 8.97567 15.0324 9.14754 14.8892 9.29077C14.7746 9.40535 14.617 9.46265 14.4165 9.46265C14.216 9.46265 14.0441 9.40535 13.9009 9.29077C13.7863 9.14754 13.729 8.97567 13.729 8.77515C13.729 8.57463 13.7863 8.41707 13.9009 8.30249ZM4.53369 12.1697C4.67692 12.0264 4.83447 11.9548 5.00635 11.9548C5.20687 11.9548 5.37874 12.0264 5.52197 12.1697C5.6652 12.3129 5.73682 12.4848 5.73682 12.6853C5.73682 12.8572 5.6652 13.0147 5.52197 13.158C5.37874 13.2725 5.20687 13.3298 5.00635 13.3298C4.83447 13.3298 4.67692 13.2725 4.53369 13.158C4.41911 13.0147 4.36182 12.8572 4.36182 12.6853C4.36182 12.4848 4.41911 12.3129 4.53369 12.1697ZM12.311 12.1697C12.4543 12.0264 12.6118 11.9548 12.7837 11.9548C12.9842 11.9548 13.1418 12.0264 13.2563 12.1697C13.3996 12.3129 13.4712 12.4848 13.4712 12.6853C13.4712 12.8572 13.3996 13.0147 13.2563 13.158C13.1418 13.2725 12.9842 13.3298 12.7837 13.3298C12.6118 13.3298 12.4543 13.2725 12.311 13.158C12.1678 13.0147 12.0962 12.8572 12.0962 12.6853C12.0962 12.4848 12.1678 12.3129 12.311 12.1697Z" fill="white"/>
</svg>
