<svg width="24" height="19" viewBox="0 0 24 19" fill="none" xmlns="http://www.w3.org/2000/svg">
<path d="M23.5312 6.45312C23.7188 6.3125 24 6.45312 24 6.6875V16.25C24 17.5156 22.9688 18.5 21.75 18.5H2.25C0.984375 18.5 0 17.5156 0 16.25V6.6875C0 6.45312 0.234375 6.3125 0.421875 6.45312C1.5 7.29688 2.85938 8.32812 7.64062 11.7969C8.625 12.5 10.3125 14.0469 12 14.0469C13.6406 14.0469 15.375 12.5 16.3125 11.7969C21.0938 8.32812 22.4531 7.29688 23.5312 6.45312ZM12 12.5C10.875 12.5469 9.32812 11.1406 8.53125 10.5781C2.29688 6.07812 1.82812 5.65625 0.421875 4.53125C0.140625 4.34375 0 4.01562 0 3.64062V2.75C0 1.53125 0.984375 0.5 2.25 0.5H21.75C22.9688 0.5 24 1.53125 24 2.75V3.64062C24 4.01562 23.8125 4.34375 23.5312 4.53125C22.125 5.65625 21.6562 6.07812 15.4219 10.5781C14.625 11.1406 13.0781 12.5469 12 12.5Z" fill="#ADADAD"/>
</svg>
