<svg width="19" height="19" viewBox="0 0 19 19" fill="none" xmlns="http://www.w3.org/2000/svg">
<path d="M17.7539 15.8242C18.0703 16.1758 18.0703 16.7031 17.7188 17.0195L16.7344 18.0039C16.418 18.3555 15.8906 18.3555 15.5391 18.0039L12.0586 14.5234C11.8828 14.3477 11.8125 14.1367 11.8125 13.9258V13.3281C10.5469 14.3125 9 14.875 7.3125 14.875C3.26953 14.875 0 11.6055 0 7.5625C0 3.55469 3.26953 0.25 7.3125 0.25C11.3203 0.25 14.625 3.55469 14.625 7.5625C14.625 9.28516 14.0273 10.832 13.0781 12.0625H13.6406C13.8516 12.0625 14.0625 12.168 14.2383 12.3086L17.7539 15.8242ZM7.3125 12.0625C9.77344 12.0625 11.8125 10.0586 11.8125 7.5625C11.8125 5.10156 9.77344 3.0625 7.3125 3.0625C4.81641 3.0625 2.8125 5.10156 2.8125 7.5625C2.8125 10.0586 4.81641 12.0625 7.3125 12.0625Z" fill="#F46A45"/>
</svg>
