<svg width="87" height="112" viewBox="0 0 87 112" fill="none" xmlns="http://www.w3.org/2000/svg">
<g clip-path="url(#clip0_282_92)">
<g filter="url(#filter0_d_282_92)">
<rect width="87" height="112" rx="17" fill="#F46A45"/>
</g>
<path d="M68.9109 56.1077C68.9109 54.1433 67.3148 52.5538 65.3423 52.5538H61.7737V49C61.7737 40.4196 55.6355 33.2415 47.4993 31.5904V27.6769C47.4993 25.7126 45.9032 24.123 43.9307 24.123C41.9582 24.123 40.3621 25.7126 40.3621 27.6769V31.5904C32.2259 33.2415 26.0877 40.4196 26.0877 49V52.5538H22.5191C20.5466 52.5538 18.9505 54.1433 18.9505 56.1077C18.9505 58.072 20.5466 59.6615 22.5191 59.6615H65.3423C67.3148 59.6615 68.9109 58.072 68.9109 56.1077ZM58.2051 73.8769H29.6563C27.6838 73.8769 26.0877 75.4664 26.0877 77.4307C26.0877 79.3951 27.6838 80.9846 29.6563 80.9846H58.2051C60.1776 80.9846 61.7737 79.3951 61.7737 77.4307C61.7737 75.4664 60.1776 73.8769 58.2051 73.8769Z" fill="white"/>
</g>
<defs>
<filter id="filter0_d_282_92" x="-4" y="-4" width="95" height="120" filterUnits="userSpaceOnUse" color-interpolation-filters="sRGB">
<feFlood flood-opacity="0" result="BackgroundImageFix"/>
<feColorMatrix in="SourceAlpha" type="matrix" values="0 0 0 0 0 0 0 0 0 0 0 0 0 0 0 0 0 0 127 0" result="hardAlpha"/>
<feOffset/>
<feGaussianBlur stdDeviation="2"/>
<feComposite in2="hardAlpha" operator="out"/>
<feColorMatrix type="matrix" values="0 0 0 0 0 0 0 0 0 0 0 0 0 0 0 0 0 0 0.25 0"/>
<feBlend mode="normal" in2="BackgroundImageFix" result="effect1_dropShadow_282_92"/>
<feBlend mode="normal" in="SourceGraphic" in2="effect1_dropShadow_282_92" result="shape"/>
</filter>
<clipPath id="clip0_282_92">
<rect width="87" height="112" fill="white"/>
</clipPath>
</defs>
</svg>
