<svg width="43" height="43" viewBox="0 0 43 43" fill="none" xmlns="http://www.w3.org/2000/svg">
<path d="M36.1346 6.16875C32.1642 2.18891 26.8767 0 21.2576 0C9.6592 0 0.2213 9.4379 0.2213 21.0363C0.2213 24.7413 1.18783 28.3611 3.02614 31.5544L0.0412598 42.4516L11.1943 39.5236C14.2644 41.2008 17.7231 42.0821 21.2481 42.0821H21.2576C32.8465 42.0821 42.4929 32.6442 42.4929 21.0458C42.4929 15.4266 40.105 10.1486 36.1346 6.16875ZM21.2576 38.5381C18.1116 38.5381 15.032 37.6948 12.3503 36.1028L11.7155 35.7238L5.10134 37.4579L6.86384 31.0048L6.44691 30.3415C4.69388 27.5556 3.77473 24.3433 3.77473 21.0363C3.77473 11.3994 11.6207 3.55343 21.2671 3.55343C25.9386 3.55343 30.3259 5.37278 33.6235 8.67984C36.9211 11.9869 38.9489 16.3742 38.9394 21.0458C38.9394 30.6921 30.8945 38.5381 21.2576 38.5381ZM30.8471 25.4425C30.3259 25.1772 27.739 23.9075 27.2558 23.7369C26.7725 23.5569 26.4219 23.4716 26.0713 24.0022C25.7207 24.5329 24.7163 25.7079 24.4036 26.0679C24.1003 26.4186 23.7876 26.4659 23.2665 26.2006C20.1774 24.656 18.1495 23.4431 16.1122 19.9466C15.5721 19.0179 16.6523 19.0843 17.6568 17.0754C17.8273 16.7248 17.7421 16.4216 17.6094 16.1563C17.4767 15.8909 16.4249 13.304 15.989 12.2522C15.5626 11.2288 15.1267 11.371 14.8046 11.352C14.5013 11.3331 14.1507 11.3331 13.8001 11.3331C13.4495 11.3331 12.881 11.4657 12.3977 11.9869C11.9144 12.5175 10.5594 13.7873 10.5594 16.3742C10.5594 18.9611 12.4451 21.4627 12.7009 21.8133C12.9663 22.1639 16.406 27.4704 21.684 29.754C25.0195 31.1944 26.3271 31.3175 27.9949 31.0712C29.0088 30.9196 31.103 29.8014 31.5388 28.5696C31.9747 27.3377 31.9747 26.2859 31.8421 26.0679C31.7189 25.8311 31.3683 25.6984 30.8471 25.4425Z" fill="#F46A45"/>
</svg>
