<svg width="35" height="35" viewBox="0 0 35 35" fill="none" xmlns="http://www.w3.org/2000/svg">
<path d="M12.91 23L16.945 17.615L13.06 12.425H15.295L18.04 16.22L20.785 12.425H23.035L19.15 17.615L23.17 23H20.92L18.04 19.04L15.175 23H12.91Z" fill="#FF0000"/>
<path d="M25.2342 26.4884C20.1554 30.827 12.5211 30.2269 8.18248 25.1481C3.8439 20.0693 4.44397 12.435 9.52277 8.09642C14.6016 3.75784 22.2359 4.3579 26.5744 9.4367C30.913 14.5155 30.313 22.1498 25.2342 26.4884ZM9.90073 8.53887C5.06629 12.6687 4.4951 19.9357 8.62493 24.7701C12.7548 29.6046 20.0218 30.1758 24.8562 26.0459C29.6906 21.9161 30.2618 14.6491 26.132 9.81467C22.0022 4.98023 14.7352 4.40903 9.90073 8.53887Z" fill="#FF0000"/>
</svg>
