<svg width="550" height="595" viewBox="0 0 550 595" fill="none" xmlns="http://www.w3.org/2000/svg">
<g filter="url(#filter0_d_596_710)">
<path d="M122.126 182.619L427.68 180.912C442.584 180.829 454.748 192.857 454.831 207.761L454.874 215.456C455.373 304.878 383.177 377.859 293.781 378.358L258.223 378.557C168.827 379.056 95.8197 306.859 95.3204 217.464L95.2773 209.742C95.194 194.838 107.222 182.675 122.126 182.592L122.126 182.619Z" fill="#F7C31E" stroke="white" stroke-width="11" stroke-miterlimit="10"/>
<path d="M197.065 349.249L360.493 348.336L360.728 390.293C360.811 405.197 348.783 417.36 333.879 417.444L224.45 418.055C209.546 418.138 197.383 406.11 197.299 391.206L197.065 349.249Z" fill="#88A550" stroke="white" stroke-width="11" stroke-miterlimit="10"/>
<path d="M33.9797 197.639L95.2147 197.297L95.4381 237.284L34.203 237.626C23.1602 237.687 14.1733 228.773 14.1117 217.757C14.0501 206.715 22.964 197.728 33.9798 197.666L33.9797 197.639Z" fill="#88A550" stroke="white" stroke-width="11" stroke-miterlimit="10"/>
<path d="M516.366 234.146L455.131 234.488L454.907 194.502L516.142 194.16C527.185 194.098 536.172 203.012 536.234 214.028C536.295 225.071 527.381 234.058 516.366 234.119L516.366 234.146Z" fill="#88A550" stroke="white" stroke-width="11" stroke-miterlimit="10"/>
<path d="M399.158 125.021C410.565 125.021 419.813 115.774 419.813 104.366C419.813 92.959 410.565 83.7114 399.158 83.7114C387.75 83.7114 378.503 92.959 378.503 104.366C378.503 115.774 387.75 125.021 399.158 125.021Z" fill="#FF633A" stroke="white" stroke-width="11" stroke-miterlimit="10"/>
<path d="M350.963 363.998C326.474 375.662 301.823 382.493 277.01 384.518C252.17 386.543 228.545 383.789 206.054 376.337C183.59 368.885 163.286 357.221 145.142 341.399C127.025 325.55 112.256 305.705 100.862 281.81C89.4678 257.942 83.3388 233.966 82.4478 209.909C81.5568 185.852 85.3639 162.713 93.8689 140.465C102.374 118.244 115.226 98.1024 132.398 80.0934C149.597 62.0844 170.414 47.2074 194.903 35.5434C222.389 22.4214 249.605 15.2934 276.524 14.1594C288.458 13.6464 300.095 14.3754 311.435 16.2924C333.845 20.0994 346.778 43.9404 338.246 65.0004C331.766 80.9574 314.891 89.8674 297.962 86.6274C290.78 85.2504 283.598 84.5754 276.416 84.6024C259.946 84.6834 243.827 88.4634 228.113 95.9424C213.29 103.016 200.897 111.98 190.88 122.888C180.863 133.796 173.492 145.919 168.74 159.311C163.988 172.703 162.071 186.797 163.016 201.566C163.934 216.335 168.011 231.266 175.22 246.386C182.429 261.506 191.474 274.061 202.382 284.078C213.29 294.095 225.413 301.466 238.805 306.218C252.197 310.97 266.264 312.887 281.06 311.942C295.829 311.024 310.625 307.028 325.421 299.981C341.135 292.502 354.176 282.296 364.517 269.363C368.999 263.747 372.968 257.726 376.397 251.273C384.497 236.018 402.101 228.431 418.625 233.453C440.333 240.068 450.674 265.043 439.631 284.861C433.988 294.986 427.211 304.571 419.3 313.643C401.534 333.974 378.773 350.768 350.963 364.025V363.998Z" fill="#FF633A" stroke="white" stroke-width="11" stroke-miterlimit="10"/>
<path d="M151.028 556.052C145.844 556.052 141.012 555.22 136.532 553.556C132.116 551.828 128.276 549.396 125.012 546.26C121.748 543.124 119.188 539.444 117.332 535.22C115.54 530.996 114.644 526.356 114.644 521.3C114.644 516.244 115.54 511.604 117.332 507.38C119.188 503.156 121.748 499.476 125.012 496.34C128.34 493.204 132.212 490.804 136.628 489.14C141.044 487.412 145.876 486.548 151.124 486.548C156.948 486.548 162.196 487.572 166.868 489.62C171.604 491.604 175.572 494.548 178.772 498.452L168.788 507.668C166.484 505.044 163.924 503.092 161.108 501.812C158.292 500.468 155.22 499.796 151.892 499.796C148.756 499.796 145.876 500.308 143.252 501.332C140.628 502.356 138.356 503.828 136.436 505.748C134.516 507.668 133.012 509.94 131.924 512.564C130.9 515.188 130.388 518.1 130.388 521.3C130.388 524.5 130.9 527.412 131.924 530.036C133.012 532.66 134.516 534.932 136.436 536.852C138.356 538.772 140.628 540.244 143.252 541.268C145.876 542.292 148.756 542.804 151.892 542.804C155.22 542.804 158.292 542.164 161.108 540.884C163.924 539.54 166.484 537.524 168.788 534.836L178.772 544.052C175.572 547.956 171.604 550.932 166.868 552.98C162.196 555.028 156.916 556.052 151.028 556.052ZM211.013 555.668C205.509 555.668 200.613 554.516 196.325 552.212C192.101 549.908 188.741 546.772 186.245 542.804C183.813 538.772 182.597 534.196 182.597 529.076C182.597 523.892 183.813 519.316 186.245 515.348C188.741 511.316 192.101 508.18 196.325 505.94C200.613 503.636 205.509 502.484 211.013 502.484C216.453 502.484 221.317 503.636 225.605 505.94C229.893 508.18 233.253 511.284 235.685 515.252C238.117 519.22 239.333 523.828 239.333 529.076C239.333 534.196 238.117 538.772 235.685 542.804C233.253 546.772 229.893 549.908 225.605 552.212C221.317 554.516 216.453 555.668 211.013 555.668ZM211.013 543.38C213.509 543.38 215.749 542.804 217.733 541.652C219.717 540.5 221.285 538.868 222.437 536.756C223.589 534.58 224.165 532.02 224.165 529.076C224.165 526.068 223.589 523.508 222.437 521.396C221.285 519.284 219.717 517.652 217.733 516.5C215.749 515.348 213.509 514.772 211.013 514.772C208.517 514.772 206.277 515.348 204.293 516.5C202.309 517.652 200.709 519.284 199.493 521.396C198.341 523.508 197.765 526.068 197.765 529.076C197.765 532.02 198.341 534.58 199.493 536.756C200.709 538.868 202.309 540.5 204.293 541.652C206.277 542.804 208.517 543.38 211.013 543.38ZM273.919 555.668C268.415 555.668 263.519 554.516 259.231 552.212C255.007 549.908 251.647 546.772 249.151 542.804C246.719 538.772 245.503 534.196 245.503 529.076C245.503 523.892 246.719 519.316 249.151 515.348C251.647 511.316 255.007 508.18 259.231 505.94C263.519 503.636 268.415 502.484 273.919 502.484C279.359 502.484 284.223 503.636 288.511 505.94C292.799 508.18 296.159 511.284 298.591 515.252C301.023 519.22 302.239 523.828 302.239 529.076C302.239 534.196 301.023 538.772 298.591 542.804C296.159 546.772 292.799 549.908 288.511 552.212C284.223 554.516 279.359 555.668 273.919 555.668ZM273.919 543.38C276.415 543.38 278.655 542.804 280.639 541.652C282.623 540.5 284.191 538.868 285.343 536.756C286.495 534.58 287.071 532.02 287.071 529.076C287.071 526.068 286.495 523.508 285.343 521.396C284.191 519.284 282.623 517.652 280.639 516.5C278.655 515.348 276.415 514.772 273.919 514.772C271.423 514.772 269.183 515.348 267.199 516.5C265.215 517.652 263.615 519.284 262.399 521.396C261.247 523.508 260.671 526.068 260.671 529.076C260.671 532.02 261.247 534.58 262.399 536.756C263.615 538.868 265.215 540.5 267.199 541.652C269.183 542.804 271.423 543.38 273.919 543.38ZM324.633 544.34L325.017 526.1L349.113 503.252H366.969L343.833 526.772L336.057 533.108L324.633 544.34ZM312.249 554.9V483.668H327.225V554.9H312.249ZM350.745 554.9L333.273 533.204L342.681 521.588L368.889 554.9H350.745ZM376.68 554.9V487.7H392.232V554.9H376.68ZM428.244 555.668C422.164 555.668 417.428 554.132 414.036 551.06C410.644 547.924 408.948 543.284 408.948 537.14V491.828H423.924V536.948C423.924 539.124 424.5 540.82 425.652 542.036C426.804 543.188 428.372 543.764 430.356 543.764C432.724 543.764 434.74 543.124 436.404 541.844L440.436 552.404C438.9 553.492 437.044 554.324 434.868 554.9C432.756 555.412 430.548 555.668 428.244 555.668ZM400.98 515.924V504.404H436.788V515.924H400.98Z" fill="white"/>
</g>
<defs>
<filter id="filter0_d_596_710" x="0.611389" y="0.5" width="549.123" height="563.552" filterUnits="userSpaceOnUse" color-interpolation-filters="sRGB">
<feFlood flood-opacity="0" result="BackgroundImageFix"/>
<feColorMatrix in="SourceAlpha" type="matrix" values="0 0 0 0 0 0 0 0 0 0 0 0 0 0 0 0 0 0 127 0" result="hardAlpha"/>
<feOffset/>
<feGaussianBlur stdDeviation="4"/>
<feComposite in2="hardAlpha" operator="out"/>
<feColorMatrix type="matrix" values="0 0 0 0 0 0 0 0 0 0 0 0 0 0 0 0 0 0 0.25 0"/>
<feBlend mode="normal" in2="BackgroundImageFix" result="effect1_dropShadow_596_710"/>
<feBlend mode="normal" in="SourceGraphic" in2="effect1_dropShadow_596_710" result="shape"/>
</filter>
</defs>
</svg>
