<svg width="270" height="298" viewBox="0 0 270 298" fill="none" xmlns="http://www.w3.org/2000/svg">
<path d="M269 134.5C269 208.782 208.782 269 134.5 269C60.2177 269 0 208.782 0 134.5C0 60.2177 60.2177 0 134.5 0C208.782 0 269 60.2177 269 134.5Z" fill="url(#paint0_linear_875_990)"/>
<path d="M269 134.5C269 208.782 208.782 269 134.5 269C60.2177 269 0 208.782 0 134.5C0 60.2177 60.2177 0 134.5 0C208.782 0 269 60.2177 269 134.5Z" fill="url(#paint1_linear_875_990)"/>
<path d="M243 134.5C243 194.975 193.975 244 133.5 244C73.0248 244 24 194.975 24 134.5C24 74.0248 73.0248 25 133.5 25C193.975 25 243 74.0248 243 134.5Z" fill="white"/>
<path d="M243 134.5C243 194.975 193.975 244 133.5 244C73.0248 244 24 194.975 24 134.5C24 74.0248 73.0248 25 133.5 25C193.975 25 243 74.0248 243 134.5Z" fill="white"/>
<rect x="73.5146" y="194.378" width="100.919" height="57.514" transform="rotate(32.7502 73.5146 194.378)" fill="white"/>
<rect x="132" y="255.359" width="100.919" height="41.9641" transform="rotate(-34.637 132 255.359)" fill="white"/>
<path d="M246.5 86.5C270 149 244 198 222 218.5" stroke="#D8D8D8" stroke-width="27"/>
<defs>
<linearGradient id="paint0_linear_875_990" x1="25" y1="198.5" x2="257.5" y2="194" gradientUnits="userSpaceOnUse">
<stop offset="0.115" stop-color="#FF7A00" stop-opacity="0.35"/>
<stop offset="0.47" stop-color="#FF7A00"/>
<stop offset="0.805" stop-color="#F15E28"/>
</linearGradient>
<linearGradient id="paint1_linear_875_990" x1="25" y1="198.5" x2="257.5" y2="194" gradientUnits="userSpaceOnUse">
<stop offset="0.115" stop-color="#FF7A00" stop-opacity="0.35"/>
<stop offset="0.47" stop-color="#FF7A00"/>
<stop offset="0.805" stop-color="#F15E28"/>
</linearGradient>
</defs>
</svg>
