<svg width="44" height="44" viewBox="0 0 44 44" fill="none" xmlns="http://www.w3.org/2000/svg">
<path d="M43.875 22C43.875 26.3265 42.5921 30.5558 40.1884 34.1531C37.7847 37.7504 34.3683 40.5542 30.3712 42.2099C26.3741 43.8655 21.9757 44.2987 17.7324 43.4547C13.4891 42.6106 9.59131 40.5272 6.53204 37.468C3.47276 34.4087 1.38937 30.5109 0.54532 26.2676C-0.298732 22.0243 0.134466 17.6259 1.79013 13.6288C3.4458 9.63167 6.24957 6.21526 9.8469 3.8116C13.4442 1.40795 17.6735 0.125 22 0.125C27.8016 0.125 33.3656 2.42968 37.468 6.53204C41.5703 10.6344 43.875 16.1984 43.875 22ZM34.5 20.4375H15.5156L24.2344 11.6766L22 9.5L9.5 22L22 34.5L24.2344 32.2703L15.5156 23.5625H34.5V20.4375Z" fill="#077979"/>
</svg>
