<svg width="60" height="60" viewBox="0 0 60 60" fill="none" xmlns="http://www.w3.org/2000/svg">
<path d="M12.23 24.035C12.23 23.03 13.0375 22.215 14.035 22.215H23.675C24.675 22.215 25.4825 23.03 25.4825 24.035C25.4835 24.2733 25.4375 24.5095 25.3472 24.7301C25.2569 24.9507 25.124 25.1513 24.9562 25.3206C24.7884 25.4898 24.5888 25.6243 24.369 25.7164C24.1492 25.8086 23.9133 25.8565 23.675 25.8575H14.035C13.5541 25.8548 13.0938 25.6614 12.7554 25.3197C12.417 24.978 12.228 24.5159 12.23 24.035Z" fill="#FFA800"/>
<path fill-rule="evenodd" clip-rule="evenodd" d="M52.97 25.01C52.815 25 52.645 25 52.47 25H45.5375C39.86 25 35 29.34 35 35C35 40.66 39.86 45 45.5375 45H52.47C52.645 45 52.815 45 52.97 44.99C55.2775 44.85 57.3175 43.0975 57.49 40.6475C57.5 40.4875 57.5 40.315 57.5 40.155V29.845C57.5 29.685 57.5 29.5125 57.49 29.3525C57.3175 26.9025 55.2775 25.1525 52.97 25.01ZM44.9275 37.6675C46.3875 37.6675 47.5725 36.4725 47.5725 35C47.5725 33.525 46.3875 32.3325 44.9275 32.3325C43.465 32.3325 42.2775 33.5275 42.2775 35C42.2775 36.475 43.465 37.6675 44.9275 37.6675Z" fill="#FFA800"/>
<path opacity="0.5" d="M52.85 25.005C52.85 22.0525 52.74 18.885 50.855 16.6175C50.6707 16.3954 50.4764 16.1818 50.2725 15.9775C48.4 14.1075 46.0275 13.2775 43.0975 12.8825C40.2475 12.5 36.61 12.5 32.015 12.5H26.735C22.14 12.5 18.5 12.5 15.65 12.8825C12.72 13.2775 10.3475 14.1075 8.475 15.9775C6.605 17.85 5.775 20.2225 5.38 23.1525C5 26.0025 5 29.64 5 34.235V34.515C5 39.11 5 42.75 5.3825 45.5975C5.7775 48.5275 6.6075 50.9 8.4775 52.7725C10.35 54.6425 12.7225 55.4725 15.6525 55.8675C18.5025 56.25 22.14 56.25 26.735 56.25H32.015C36.61 56.25 40.25 56.25 43.0975 55.8675C46.0275 55.4725 48.4 54.6425 50.2725 52.7725C50.7706 52.2729 51.2116 51.7195 51.5875 51.1225C52.7125 49.3225 52.8475 47.1175 52.8475 44.9975L52.4725 45H45.5375C39.86 45 35 40.66 35 35C35 29.34 39.86 25 45.5375 25H52.47C52.6 25 52.73 25 52.85 25.005Z" fill="#FFA800"/>
<path d="M25.2525 6.42995L20 9.97995L15.6675 12.8799C18.5125 12.4999 22.1475 12.4999 26.735 12.4999H32.015C36.61 12.4999 40.25 12.4999 43.0975 12.8824C43.6725 12.9574 44.2225 13.0525 44.7525 13.1675L40 9.99995L34.7175 6.42995C33.3154 5.49732 31.669 4.99976 29.985 4.99976C28.301 4.99976 26.6546 5.49732 25.2525 6.42995Z" fill="#FFA800"/>
</svg>
